<svg xmlns="http://www.w3.org/2000/svg" width="239.685" height="63.845" viewBox="0 0 239.685 63.845">
  <g id="recruit-dk" transform="translate(-1.199 -0.197)">
    <path id="排除_6" data-name="排除 6" d="M4133.843-718.829H3908.2v-16.128h225.644v16.127Zm-46.854-10.253a3.9,3.9,0,0,0-2.21.683,3.941,3.941,0,0,0-1.094,2.871,3.831,3.831,0,0,0,.821,2.462,3.3,3.3,0,0,0,2.453,1.1c.049,0,.1,0,.144,0a3.655,3.655,0,0,0,1.639-.411,2.614,2.614,0,0,0,1.5-2.05l-1.365-.137a1.743,1.743,0,0,1-.6,1.234,1.737,1.737,0,0,1-1.127.417,1.729,1.729,0,0,1-.184-.01c-1.379,0-2.05-.849-2.05-2.6,0-1.771.695-2.6,2.186-2.6h.062a1.6,1.6,0,0,1,1.579,1.367l1.232-.137a1.548,1.548,0,0,0-.41-1.094,2.993,2.993,0,0,0-2.32-1.1c-.048,0-.1,0-.142,0Zm27.31.274v.958h.959v3.827a3.185,3.185,0,0,0,.274,1.5c.123.373.6.547,1.5.547a1.77,1.77,0,0,0,.381-.058,2.49,2.49,0,0,1,.576-.079l-.138-.82h-.547c-.025,0-.05,0-.075,0a.808.808,0,0,1-.61-.278,1.023,1.023,0,0,1-.136-.683v-3.963h1.231v-.958h-1.231v-2.322l-1.23.683v1.639Zm-14.9,0v6.835h1.23v-3.552a2.96,2.96,0,0,1,.272-1.64c0-.274.278-.413.547-.548a2.521,2.521,0,0,1,.957-.273,1.126,1.126,0,0,1,.132-.008,1.118,1.118,0,0,1,.962.555c.136.137.136.554.136.958v4.372H4105v-3.962a1.841,1.841,0,0,1,.273-1.231,1.774,1.774,0,0,1,1.4-.687q.053,0,.107,0c.734,0,1.1.164,1.23.547a2.354,2.354,0,0,1,.137,1.094v4.237h1.365v-4.51a2.082,2.082,0,0,0-.6-1.726,2.106,2.106,0,0,0-1.479-.612,2.123,2.123,0,0,0-.247.015h-.068a2.669,2.669,0,0,0-2.254,1.231,2.2,2.2,0,0,0-1.972-1.241c-.072,0-.145,0-.216.01h-.039a2.666,2.666,0,0,0-2.148,1.094v-.958Zm-5.053,6.7h0c.088.007.177.01.274.01a3.316,3.316,0,0,0,2.328-.965,3.283,3.283,0,0,0,.951-2.6,4.405,4.405,0,0,0-1.093-2.875,4.218,4.218,0,0,0-2.307-.683h-.016q-.076,0-.152,0a3.61,3.61,0,0,0-2.582,1.1,3.827,3.827,0,0,0-.82,2.462,3.247,3.247,0,0,0,.684,2.461,3.794,3.794,0,0,0,2.675,1.095Zm28.971-5.187h0v.13c.134.54.272.952.273.955l1.231,4.1h1.366l2.323-6.833h-1.362l-1.23,3.963a.9.9,0,0,1-.085.366.5.5,0,0,0-.052.181,3.921,3.921,0,0,1-.149.373,1.023,1.023,0,0,0-.124.447.861.861,0,0,1-.161-.408c-.027-.114-.06-.254-.112-.412a.9.9,0,0,0-.085-.365.5.5,0,0,1-.052-.181l-1.093-3.963h-1.23l-1.231,3.963-.136.273a9.811,9.811,0,0,1-.274,1.095,6.248,6.248,0,0,1-.411-1.095l-1.23-4.236h-1.365l2.325,6.834h1.368Zm-85.145,0h0v.13c.12.477.238.849.272.952l1.233,4.1h1.366l2.324-6.833H4042l-1.23,3.963a.894.894,0,0,1-.087.367.49.49,0,0,0-.052.179,3.727,3.727,0,0,1-.149.375,1.01,1.01,0,0,0-.124.445.858.858,0,0,1-.16-.408c-.028-.119-.06-.254-.114-.413a.9.9,0,0,0-.085-.367.5.5,0,0,1-.051-.179l-1.094-3.963h-1.231l-1.23,3.963-.136.273a9.961,9.961,0,0,1-.275,1.095,6.2,6.2,0,0,1-.41-1.095l-1.23-4.236h-2.456l-1.23,3.963a.9.9,0,0,1-.087.367.486.486,0,0,0-.051.179,3.761,3.761,0,0,1-.149.374,1.016,1.016,0,0,0-.124.446.859.859,0,0,1-.16-.407c-.029-.121-.061-.256-.114-.413a.9.9,0,0,0-.085-.367.493.493,0,0,1-.051-.179l-1.23-3.963h-1.231l-1.23,3.963-.137.273a9.9,9.9,0,0,1-.274,1.095,6.08,6.08,0,0,1-.41-1.095l-1.23-4.236H4021.5l-1.231,3.963a.9.9,0,0,1-.086.368.492.492,0,0,0-.051.179,3.654,3.654,0,0,1-.148.372,1.017,1.017,0,0,0-.126.449.856.856,0,0,1-.16-.408l0-.009c-.028-.117-.059-.25-.111-.4a.9.9,0,0,0-.085-.367.5.5,0,0,1-.051-.179l-1.095-3.963h-1.23l-1.23,3.963-.138.273a9.951,9.951,0,0,1-.273,1.095,6.115,6.115,0,0,1-.41-1.095l-1.23-4.236h-1.367l2.325,6.834h1.367l1.5-5.193v.137c.119.476.239.849.273.952l1.232,4.1h1.367l2.254-6.632,2.257,6.632h1.366l1.5-5.193v.137c.12.477.238.849.272.952l1.231,4.1h1.367l2.255-6.632,2.257,6.632h1.367Zm73.258,3.82v1.366h1.5v-1.366h-1.5Zm-31.024,0v1.366h1.5v-1.366h-1.5Zm-5.056-6.014v7.381h1.365v-9.429h-.821a6.023,6.023,0,0,1-3.007,2.322v1.094a7.128,7.128,0,0,0,2.46-1.366Zm-7.927,0v7.381h1.365v-9.429h-.821a6.024,6.024,0,0,1-3.005,2.322v1.094a7.107,7.107,0,0,0,2.459-1.366Zm-7.926,0v7.381h1.365v-9.429h-.821a6.027,6.027,0,0,1-3.007,2.322v1.094a7.142,7.142,0,0,0,2.46-1.366Zm-7.927,0v7.381h1.365v-9.429h-.821a6.027,6.027,0,0,1-3.007,2.322v1.094a7.131,7.131,0,0,0,2.46-1.366Zm-6.973,6.014v1.366h1.5v-1.366h-1.5Zm49.9.555c-.05,0-.1,0-.15-.006h-.05a2.305,2.305,0,0,1-1.318-.41,2.894,2.894,0,0,1-.821-2.187,2.4,2.4,0,0,1,.819-2.053,2.3,2.3,0,0,1,1.317-.411h.05l.1,0a2.06,2.06,0,0,1,1.4.549,2.7,2.7,0,0,1,.683,1.914,2.926,2.926,0,0,1-.409,1.643A1.854,1.854,0,0,1,4094.5-722.921Zm-44.6-20.443h0l-1.232-2.049c3.754-.673,6.392-1.88,8.066-3.693h-4.1V-750.2a27.922,27.922,0,0,1-4.647,2.186l-1.093-2.049a20.36,20.36,0,0,0,6.013-2.871h-5.739v-1.913h7.788a7.459,7.459,0,0,0,.96-1.229H4049.9v-7.654h18.861v7.515h-10.25l-.82,1.23h14.079v1.914h-6.013a26.493,26.493,0,0,0,6.283,2.734l-1.228,2.188a25.4,25.4,0,0,1-3.692-1.505,15.255,15.255,0,0,1-.686,4.1,3.321,3.321,0,0,1-1.23,1.5,6.688,6.688,0,0,1-2.341.422c-.13,0-.262,0-.393-.012H4061.1l-.817-2.187h1.778c1.053,0,1.626-.123,1.914-.41s.411-1.264.547-2.871h-5.058a9.431,9.431,0,0,1-3.5,3.486,20.407,20.407,0,0,1-6.064,2.255Zm6.558-9.842c-.46.458-1.116,1.018-1.875,1.666l-.45.385h3.966l.274-1.367h0l2.322.137a3.889,3.889,0,0,1-.274,1.231h4.374a10.617,10.617,0,0,1-2.188-2.051Zm-3.961-6.013v1.094h13.938v-1.094h-13.938Zm0-2.736v1.094h13.94l0-.135v-.959h-13.938Zm29.928,18.182h-2.462v-13.807h16.4v5.329h-13.934v1.505h14.9l0,5.878h-14.9v1.093Zm-.135-4.923v1.913h12.439V-748.7Zm.138-6.971v1.64h11.481v-1.64Zm-51.115,11.892h-2.464V-755.12H4041.7v11.345h-2.6v-1.5h-7.788v1.5Zm0-9.022v5.193h7.788V-752.8Zm-9.981,8.884h-1.773l-.82-2.462h1.5c.971,0,1.505,0,1.642-.137a.71.71,0,0,0,.272-.548v-6.694c-.622.25-1.722.665-3.417,1.23l-.546-2.324c1.215-.405,2.589-.954,3.918-1.486l.044-.018v-5.194h-3.692v-2.187h3.692v-4.509h2.462v4.509h3.143v2.324h-3.283v4.237c.688-.276,1.519-.692,2.323-1.095l.411,2.323a17.757,17.757,0,0,1-2.734,1.232v8.473a2.023,2.023,0,0,1-.8,1.725A3.907,3.907,0,0,1,4021.33-743.911Zm108.111-.409h0l-.138,0h-16.129v-2.323h6.97v-2.734h-5.875v-2.185h5.875v-2.462H4114.4v-13.53h13.947v13.53h-5.6v2.462h6.015v2.187h-6.015v2.734h6.7v2.322Zm-6.972-15.584v3.692h3.279V-759.9h-3.279Zm-5.6,0v3.692h3.282V-759.9h-3.282Zm5.6-5.463v3.416h3.279v-3.416Zm-5.6,0v3.416h3.282v-3.416Zm-11.343,19.68h0l-.819-2.324c.3-.12.678-.292,1.155-.509l.015-.007c.6-.271,1.338-.609,2.247-.988v-6.97h-2.734v-2.325h2.734v-5.739h-3.143v-2.186h8.471v2.188h-2.869v5.6h2.462v2.323h-2.462v5.741a28.534,28.534,0,0,0,2.869-1.505l-.135,2.6a67.373,67.373,0,0,1-7.789,4.1Zm-75.988-10.389h0l-1.913-1.777a9.85,9.85,0,0,0,4.924-7.652h-4.378v-2.323h14.077c0,1.945-.138,3.736-.272,5.467a25.328,25.328,0,0,1-.411,3.416,1.983,1.983,0,0,1-.821,1.23,3.225,3.225,0,0,1-1.367.684,17.689,17.689,0,0,1-2.338.155c-.267,0-.538-.006-.8-.018l-.957-2.462h1.913c.971,0,1.505,0,1.639-.137.3-.148.412-.454.412-1.094a18.131,18.131,0,0,0,.169-2.459l0-.067c.025-.656.056-1.472.1-2.393H4035a11.8,11.8,0,0,1-5.467,9.429Zm49.608-.134h-2.461V-761H4086.8a6.094,6.094,0,0,0-.683-1.23l2.868-.409a17.783,17.783,0,0,1,.959,1.776h9.976l0,4.649h-2.46v-2.734h-18.316v2.734Zm3.556-5.331h0a11.087,11.087,0,0,0-1.229-1.912l2.6-.547a6.257,6.257,0,0,1,1.366,1.914l-2.733.546Zm11.346,0h0a10.952,10.952,0,0,0-1.094-2.186l2.734-.275a7.237,7.237,0,0,1,1.091,2.051l-2.729.411Zm-16.539-.137h0l-1.64-2.049a10.584,10.584,0,0,0,4.237-4.783l2.6.683a4.075,4.075,0,0,1-.547,1.094h5.877v2.186h-7.38a21.842,21.842,0,0,1-3.144,2.87Zm12.848-.82h0l-2.323-1.23a18.75,18.75,0,0,0,3.28-4.783l2.6.683a3.791,3.791,0,0,1-.683,1.094h7.379v2.186h-8.61a10.8,10.8,0,0,1-1.64,2.05Zm-24.739-1.777h-2.464v-.82h-3.143v-1.912h3.143v-1.23h2.464v1.23h6.013v1.912h-6.013v.819Zm-9.977,0h-2.461v-.82h-6.014v-1.912h6.014v-1.23h2.461v1.23h3.28v1.912h-3.28v.819Z" transform="translate(-3892.958 778.207)" fill="#19282b"/>
    <path id="联合_4" data-name="联合 4" d="M4002.7-704.667v-39.006c0-2.166-.669-2.7-1.081-3.11a3.325,3.325,0,0,0-1.771-.533h-.3l-2.6.395v-12.4l1.633-.551a26.327,26.327,0,0,0,10.786-7.557.446.446,0,0,0,.136-.277l.669-.807h12.7v63.845Zm-29.8,0v-39.006c0-2.166-.669-2.7-1.081-3.11a3.326,3.326,0,0,0-1.772-.533h-.295l-2.6.395v-12.4l1.634-.551a26.329,26.329,0,0,0,10.786-7.557.451.451,0,0,0,.136-.277l.669-.807h12.7v63.845Zm-29.152,0v-39.006c0-2.166-.669-2.7-1.081-3.11a3.327,3.327,0,0,0-1.772-.533h-.295l-2.6.395v-12.4l1.634-.551a26.325,26.325,0,0,0,10.786-7.557.444.444,0,0,0,.136-.277l.669-.807h12.7v63.845Zm-29.8,0v-39.006c0-2.166-.669-2.7-1.082-3.11a3.319,3.319,0,0,0-1.771-.533h-.295l-2.6.395v-12.4l1.634-.551a26.325,26.325,0,0,0,10.786-7.557.454.454,0,0,0,.136-.277l.669-.807h12.7v63.845Z" transform="translate(-3907 768.708)" fill="#fff"/>
    <path id="联合_3" data-name="联合 3" d="M4002.832-709.469v-35.779l-.276-3.783a5.076,5.076,0,0,0-5.176-3.109c-.552,0-.413-.118-.413-.118v-7.968c0-.41,1.082-.67,1.082-.67a26.454,26.454,0,0,0,11.061-7.616h9.27v59.043Zm-29.8,0v-35.779l-.275-3.783a5.078,5.078,0,0,0-5.177-3.109c-.552,0-.414-.118-.414-.118v-7.968c0-.41,1.082-.67,1.082-.67a26.455,26.455,0,0,0,11.061-7.616h9.27v59.043Zm-29.152,0v-35.779l-.275-3.783a5.077,5.077,0,0,0-5.177-3.109c-.552,0-.414-.118-.414-.118v-7.968c0-.41,1.083-.67,1.083-.67a26.451,26.451,0,0,0,11.06-7.616h9.27v59.043Zm-29.8,0v-35.779l-.275-3.783a5.078,5.078,0,0,0-5.177-3.109c-.552,0-.414-.118-.414-.118v-7.968c0-.41,1.082-.67,1.082-.67a26.454,26.454,0,0,0,11.061-7.616h9.27v59.043Z" transform="translate(-3904.751 771.092)" fill="#e92921"/>
  </g>
</svg>
