<svg xmlns="http://www.w3.org/2000/svg" width="239.686" height="63.845" viewBox="0 0 239.686 63.845">
  <g id="recruit-wt" transform="translate(-1.199 -0.197)">
    <path id="排除_5" data-name="排除 5" d="M3658.843-718.829H3433.2v-16.128h225.644v16.127Zm-46.85-10.253a3.905,3.905,0,0,0-2.214.684,3.939,3.939,0,0,0-1.094,2.871,3.82,3.82,0,0,0,.82,2.462,3.3,3.3,0,0,0,2.454,1.1l.143,0a3.662,3.662,0,0,0,1.64-.41,2.618,2.618,0,0,0,1.5-2.05l-1.366-.137a1.735,1.735,0,0,1-.6,1.233,1.734,1.734,0,0,1-1.126.417,1.7,1.7,0,0,1-.186-.01c-1.38,0-2.051-.849-2.051-2.6,0-1.771.695-2.6,2.187-2.6h.06a1.607,1.607,0,0,1,1.581,1.368l1.23-.138a1.549,1.549,0,0,0-.41-1.094,3,3,0,0,0-2.322-1.1c-.047,0-.093,0-.14,0Zm28.266,1.233v3.826a3.191,3.191,0,0,0,.273,1.5c.124.373.6.547,1.5.547a1.757,1.757,0,0,0,.381-.058,2.489,2.489,0,0,1,.577-.079l-.139-.819h-.546c-.026,0-.052,0-.077,0a.8.8,0,0,1-.607-.278,1.027,1.027,0,0,1-.137-.683v-3.962h1.231v-.958h-1.231v-2.322l-1.23.683v1.639h-.958v.958Zm-15.861-.958v6.835h1.231v-3.553a2.965,2.965,0,0,1,.272-1.64c0-.275.278-.414.547-.547a2.532,2.532,0,0,1,.958-.274,1.106,1.106,0,0,1,.131-.008,1.116,1.116,0,0,1,.962.555c.136.137.136.554.136.957v4.373H3630v-3.962a1.847,1.847,0,0,1,.273-1.231,1.776,1.776,0,0,1,1.4-.687c.035,0,.07,0,.106,0,.735,0,1.1.164,1.23.547a2.35,2.35,0,0,1,.137,1.094v4.236h1.365v-4.51a2.082,2.082,0,0,0-.6-1.725,2.079,2.079,0,0,0-1.479-.612,2.133,2.133,0,0,0-.246.015h-.068a2.668,2.668,0,0,0-2.255,1.231,2.2,2.2,0,0,0-1.972-1.241c-.072,0-.144,0-.215.01h-.04a2.662,2.662,0,0,0-2.147,1.094v-.958Zm-5.051,6.7h0c.087.008.179.012.273.012a3.271,3.271,0,0,0,2.328-.965,3.286,3.286,0,0,0,.953-2.6,4.414,4.414,0,0,0-1.094-2.875,4.23,4.23,0,0,0-2.305-.682h-.019c-.05,0-.1,0-.151,0a3.606,3.606,0,0,0-2.582,1.1,3.823,3.823,0,0,0-.82,2.461,3.245,3.245,0,0,0,.684,2.462,3.8,3.8,0,0,0,2.674,1.094Zm28.971-5.186h0v.13c.134.539.272.953.274.956l1.23,4.1h1.367l2.323-6.832h-1.363l-1.231,3.962a.907.907,0,0,1-.085.368.5.5,0,0,0-.051.179,3.756,3.756,0,0,1-.149.372,1.015,1.015,0,0,0-.125.448.854.854,0,0,1-.161-.409c-.027-.113-.06-.252-.113-.411a.893.893,0,0,0-.086-.367.5.5,0,0,1-.051-.181l-1.094-3.962h-1.23l-1.231,3.962-.136.274a9.868,9.868,0,0,1-.274,1.094,6.114,6.114,0,0,1-.41-1.094l-1.231-4.236h-1.365l2.325,6.833h1.367Zm-11.887,3.82h0v1.365h1.5v-1.366Zm-31.025,0h0v1.365h1.5v-1.366Zm-5.056-6.015v7.38h1.365v-9.429h-.82a6.034,6.034,0,0,1-3.006,2.322v1.094a7.125,7.125,0,0,0,2.459-1.366Zm-7.927,0v7.38h1.365v-9.429h-.82a6.03,6.03,0,0,1-3.006,2.322v1.094a7.114,7.114,0,0,0,2.46-1.366Zm-7.927,0v7.38h1.365v-9.429h-.82a6.037,6.037,0,0,1-3.007,2.322v1.094a7.122,7.122,0,0,0,2.46-1.366Zm-7.926,0v7.38h1.365v-9.429h-.82a6.032,6.032,0,0,1-3.006,2.322v1.094a7.135,7.135,0,0,0,2.46-1.366Zm-6.973,6.015h0v1.365h1.505v-1.366Zm-6.425-3.82h0v.13c.119.476.239.849.272.952l1.232,4.1h1.367l2.323-6.832h-1.363l-1.231,3.962a.9.9,0,0,1-.086.368.486.486,0,0,0-.051.179,3.739,3.739,0,0,1-.15.375,1.006,1.006,0,0,0-.124.445.852.852,0,0,1-.16-.406l0-.011c-.028-.117-.06-.25-.111-.4a.9.9,0,0,0-.085-.367.49.49,0,0,1-.051-.181l-1.094-3.962h-1.23l-1.231,3.962-.136.274a9.928,9.928,0,0,1-.275,1.094,6.116,6.116,0,0,1-.409-1.094l-1.23-4.236h-2.456l-1.23,3.962a.9.9,0,0,1-.086.368.487.487,0,0,0-.051.179,3.753,3.753,0,0,1-.149.373,1.013,1.013,0,0,0-.125.447.852.852,0,0,1-.162-.41c-.026-.111-.058-.249-.112-.41a.9.9,0,0,0-.085-.367.489.489,0,0,1-.051-.181l-1.231-3.962h-1.23l-1.23,3.962-.138.274a9.889,9.889,0,0,1-.274,1.094,6.054,6.054,0,0,1-.41-1.094l-1.23-4.236H3546.5l-1.23,3.962a.9.9,0,0,1-.086.367.493.493,0,0,0-.052.181,3.661,3.661,0,0,1-.15.375,1.008,1.008,0,0,0-.124.445.853.853,0,0,1-.161-.409c-.026-.111-.058-.25-.112-.411a.9.9,0,0,0-.085-.366.488.488,0,0,1-.052-.181l-1.094-3.962h-1.23l-1.231,3.962-.137.274a9.872,9.872,0,0,1-.274,1.094,6.091,6.091,0,0,1-.409-1.094l-1.23-4.236h-1.367l2.326,6.833h1.366l1.5-5.193v.137c.12.476.239.849.272.952l1.232,4.1h1.367l2.255-6.632,2.256,6.632h1.367l1.5-5.193v.137c.12.476.239.849.272.952l1.232,4.1h1.367l2.255-6.632,2.256,6.632h1.367Zm56.328,4.375c-.051,0-.1,0-.152-.006h-.052a2.3,2.3,0,0,1-1.315-.41,2.9,2.9,0,0,1-.82-2.187,2.4,2.4,0,0,1,.818-2.053,2.309,2.309,0,0,1,1.316-.411h.052l.1,0a2.058,2.058,0,0,1,1.4.55,2.694,2.694,0,0,1,.683,1.914,2.923,2.923,0,0,1-.409,1.644A1.853,1.853,0,0,1,3619.5-722.921Zm-44.6-20.442h0l-1.233-2.051c3.755-.672,6.393-1.879,8.066-3.692h-4.1V-750.2a27.9,27.9,0,0,1-4.648,2.185l-1.092-2.049a20.361,20.361,0,0,0,6.014-2.87h-5.739v-1.914h7.788a7.5,7.5,0,0,0,.96-1.229H3574.9v-7.655h18.861v7.516h-10.25l-.819,1.231h14.078v1.914h-6.013a26.463,26.463,0,0,0,6.283,2.734l-1.229,2.187a25.354,25.354,0,0,1-3.692-1.505,15.235,15.235,0,0,1-.685,4.1,3.33,3.33,0,0,1-1.231,1.5,6.705,6.705,0,0,1-2.344.422c-.13,0-.261,0-.39-.011H3586.1l-.817-2.187h1.779c1.053,0,1.626-.122,1.914-.41s.412-1.264.546-2.87h-5.057a9.43,9.43,0,0,1-3.5,3.486,20.424,20.424,0,0,1-6.064,2.256Zm8.473-9.16h0l2.323.137a3.929,3.929,0,0,1-.275,1.231h4.374a10.669,10.669,0,0,1-2.188-2.05h-6.15c-.459.457-1.11,1.013-1.864,1.656l-.068.058-.393.336h3.967l.273-1.367Zm-5.876-6.7v1.094h13.938v-1.094Zm0-2.735v1.094h13.94l0-.135v-.959Zm29.927,18.182h-2.462v-13.807h16.4v5.33h-13.934v1.5h14.9l0,5.879h-14.9v1.093Zm-.135-4.923v1.914h12.439V-748.7Zm.139-6.97v1.64h11.481v-1.64h-11.481Zm-51.114,11.892h-2.464V-755.12H3566.7v11.345h-2.6v-1.505h-7.788v1.505Zm0-9.022h0v5.194h7.788v-5.194Zm-9.982,8.884h-1.772l-.82-2.462h1.5c.97,0,1.5,0,1.643-.137a.716.716,0,0,0,.272-.548v-6.694c-.633.254-1.741.672-3.417,1.231l-.545-2.324c1.212-.4,2.583-.952,3.909-1.482l.052-.021v-5.193h-3.693v-2.188h3.693v-4.509h2.461v4.509h3.143v2.325h-3.284v4.236c.654-.262,1.406-.634,2.322-1.094l.411,2.323a17.871,17.871,0,0,1-2.734,1.232v8.473a2.024,2.024,0,0,1-.8,1.725A3.909,3.909,0,0,1,3546.329-743.911Zm108.113-.41h0l-.138,0h-16.129v-2.322h6.969v-2.734h-5.876v-2.185h5.876v-2.462H3639.4v-13.529h13.946v13.529h-5.6v2.462h6.015v2.187h-6.015v2.734h6.7v2.321Zm-6.972-15.584v3.692h3.28V-759.9Zm-5.6,0v3.692h3.281V-759.9Zm5.6-5.463h0v3.416h3.28v-3.416Zm-5.6,0h0v3.416h3.281v-3.416Zm-11.344,19.679h0l-.819-2.324c.3-.119.673-.289,1.146-.5l.008,0c.6-.273,1.345-.612,2.262-.994v-6.97h-2.734v-2.325h2.734v-5.739h-3.142v-2.185h8.471v2.187h-2.869v5.6h2.462v2.323h-2.462v5.741a28.594,28.594,0,0,0,2.869-1.505l-.135,2.6a67.259,67.259,0,0,1-7.79,4.1Zm-75.987-10.389h0l-1.913-1.776a9.85,9.85,0,0,0,4.923-7.653h-4.377v-2.322h14.078c0,1.913-.138,3.719-.271,5.465a25.261,25.261,0,0,1-.412,3.418,1.988,1.988,0,0,1-.82,1.231,3.222,3.222,0,0,1-1.367.682,17.677,17.677,0,0,1-2.34.156c-.266,0-.536-.006-.8-.018l-.957-2.462h1.914c.97,0,1.505,0,1.64-.137.3-.149.41-.455.41-1.094a18.011,18.011,0,0,0,.17-2.457v-.009c.024-.63.056-1.492.1-2.454H3560a11.8,11.8,0,0,1-5.467,9.429Zm49.608-.134h-2.461V-761H3611.8a6.132,6.132,0,0,0-.683-1.231l2.869-.409a17.664,17.664,0,0,1,.958,1.777h9.976l0,4.648h-2.459v-2.734h-18.316v2.734Zm3.555-5.331h0a11.084,11.084,0,0,0-1.227-1.914l2.6-.545a6.226,6.226,0,0,1,1.366,1.914l-2.734.546Zm11.346,0h0a10.96,10.96,0,0,0-1.093-2.187l2.734-.274a7.285,7.285,0,0,1,1.092,2.05l-2.731.411Zm-16.539-.138h0l-1.639-2.05a10.582,10.582,0,0,0,4.237-4.782l2.6.683a4.069,4.069,0,0,1-.545,1.094h5.877v2.185h-7.38a21.837,21.837,0,0,1-3.143,2.87Zm12.848-.819h0l-2.323-1.231a18.746,18.746,0,0,0,3.281-4.782l2.6.683a3.823,3.823,0,0,1-.683,1.094h7.379v2.185h-8.61a10.846,10.846,0,0,1-1.639,2.051Zm-24.74-1.777h-2.464v-.82h-3.143v-1.912h3.143v-1.231h2.464v1.231h6.013v1.912h-6.013v.819Zm-9.978,0h-2.46v-.82h-6.016v-1.912h6.016v-1.231h2.46v1.231h3.281v1.912h-3.281v.819Z" transform="translate(-3417.958 778.207)" fill="#fff"/>
    <path id="联合_4" data-name="联合 4" d="M4002.7-704.667v-39.006c0-2.166-.669-2.7-1.081-3.11a3.325,3.325,0,0,0-1.771-.533h-.3l-2.6.395v-12.4l1.633-.551a26.327,26.327,0,0,0,10.786-7.557.446.446,0,0,0,.136-.277l.669-.807h12.7v63.845Zm-29.8,0v-39.006c0-2.166-.669-2.7-1.081-3.11a3.326,3.326,0,0,0-1.772-.533h-.295l-2.6.395v-12.4l1.634-.551a26.329,26.329,0,0,0,10.786-7.557.451.451,0,0,0,.136-.277l.669-.807h12.7v63.845Zm-29.152,0v-39.006c0-2.166-.669-2.7-1.081-3.11a3.327,3.327,0,0,0-1.772-.533h-.295l-2.6.395v-12.4l1.634-.551a26.325,26.325,0,0,0,10.786-7.557.444.444,0,0,0,.136-.277l.669-.807h12.7v63.845Zm-29.8,0v-39.006c0-2.166-.669-2.7-1.082-3.11a3.319,3.319,0,0,0-1.771-.533h-.295l-2.6.395v-12.4l1.634-.551a26.325,26.325,0,0,0,10.786-7.557.454.454,0,0,0,.136-.277l.669-.807h12.7v63.845Z" transform="translate(-3907 768.708)" fill="#fff"/>
    <path id="联合_3" data-name="联合 3" d="M4002.832-709.469v-35.779l-.276-3.783a5.076,5.076,0,0,0-5.176-3.109c-.552,0-.413-.118-.413-.118v-7.968c0-.41,1.082-.67,1.082-.67a26.454,26.454,0,0,0,11.061-7.616h9.27v59.043Zm-29.8,0v-35.779l-.275-3.783a5.078,5.078,0,0,0-5.177-3.109c-.552,0-.414-.118-.414-.118v-7.968c0-.41,1.082-.67,1.082-.67a26.455,26.455,0,0,0,11.061-7.616h9.27v59.043Zm-29.152,0v-35.779l-.275-3.783a5.077,5.077,0,0,0-5.177-3.109c-.552,0-.414-.118-.414-.118v-7.968c0-.41,1.083-.67,1.083-.67a26.451,26.451,0,0,0,11.06-7.616h9.27v59.043Zm-29.8,0v-35.779l-.275-3.783a5.078,5.078,0,0,0-5.177-3.109c-.552,0-.414-.118-.414-.118v-7.968c0-.41,1.082-.67,1.082-.67a26.454,26.454,0,0,0,11.061-7.616h9.27v59.043Z" transform="translate(-3904.751 771.092)" fill="#e92921"/>
  </g>
</svg>
