<svg xmlns="http://www.w3.org/2000/svg" width="237.437" height="59.042" viewBox="0 0 237.437 59.042">
  <g id="recruit-s-wt" transform="translate(-403.248 -1025.092)">
    <path id="排除_7" data-name="排除 7" d="M4533.644,16.127H4308V0h225.644V16.126ZM4486.794,5.874a3.908,3.908,0,0,0-2.216.684,3.939,3.939,0,0,0-1.093,2.871,3.819,3.819,0,0,0,.82,2.461,3.293,3.293,0,0,0,2.453,1.1c.047,0,.1,0,.144,0a3.641,3.641,0,0,0,1.639-.411,2.614,2.614,0,0,0,1.505-2.049l-1.367-.138a1.73,1.73,0,0,1-1.914,1.641c-1.38,0-2.05-.85-2.05-2.6,0-1.771.695-2.6,2.187-2.6h.061a1.6,1.6,0,0,1,1.579,1.368l1.231-.137a1.545,1.545,0,0,0-.41-1.093,2.994,2.994,0,0,0-2.323-1.1c-.046,0-.092,0-.138,0Zm27.305.276v.957h.959v3.826a3.188,3.188,0,0,0,.273,1.5c.125.373.6.546,1.5.546a1.777,1.777,0,0,0,.381-.058,2.513,2.513,0,0,1,.577-.079l-.139-.819h-.546c-.025,0-.05,0-.075,0a.8.8,0,0,1-.609-.279,1.023,1.023,0,0,1-.137-.683V7.107h1.231V6.15h-1.231V3.826l-1.231.684V6.15Zm-14.9,0v6.834h1.231V9.431a2.96,2.96,0,0,1,.272-1.641c0-.276.278-.413.547-.546a2.544,2.544,0,0,1,.958-.274,1.11,1.11,0,0,1,1.092.547c.137.138.137.554.137.957v4.374h1.368V8.885a1.838,1.838,0,0,1,.273-1.231,1.769,1.769,0,0,1,1.4-.687q.053,0,.107,0c.736,0,1.1.163,1.231.546a2.35,2.35,0,0,1,.137,1.093v4.237h1.365V8.337A2.089,2.089,0,0,0,4507.236,6a2.115,2.115,0,0,0-.247.014h-.068a2.668,2.668,0,0,0-2.255,1.232A2.2,2.2,0,0,0,4502.694,6c-.071,0-.144,0-.215.011h-.039a2.67,2.67,0,0,0-2.149,1.094V6.15Zm-5.052,6.7h0c.1.008.191.011.274.011a3.294,3.294,0,0,0,3.28-3.565,4.408,4.408,0,0,0-1.095-2.874,4.228,4.228,0,0,0-2.312-.684h-.012c-.05,0-.1,0-.151,0a3.609,3.609,0,0,0-2.582,1.1,3.826,3.826,0,0,0-.82,2.462,3.248,3.248,0,0,0,.684,2.461,3.8,3.8,0,0,0,2.678,1.095Zm28.971-5.186h0V7.79c.133.538.272.952.273.956l1.231,4.1h1.367l2.323-6.833h-1.361l-1.231,3.963a.9.9,0,0,1-.086.367.489.489,0,0,0-.051.18c-.053.156-.1.27-.148.37a1.015,1.015,0,0,0-.125.449.846.846,0,0,1-.162-.409l0-.01c-.028-.116-.059-.248-.11-.4a.9.9,0,0,0-.085-.367.488.488,0,0,1-.051-.18l-1.095-3.963h-1.23l-1.231,3.963-.137.273a9.735,9.735,0,0,1-.273,1.093,6.08,6.08,0,0,1-.411-1.093l-1.231-4.236h-1.365l2.326,6.834h1.367Zm-11.887,3.82v1.366h1.5V11.48Zm-31.024,0v1.366h1.5V11.48Zm-5.055-6.014v7.381h1.365V3.417h-.82a6.035,6.035,0,0,1-3.007,2.323V6.834a7.131,7.131,0,0,0,2.461-1.366Zm-7.927,0v7.381h1.364V3.417h-.82a6.024,6.024,0,0,1-3.006,2.323V6.834a7.1,7.1,0,0,0,2.46-1.366Zm-7.927,0v7.381h1.365V3.417h-.82a6.037,6.037,0,0,1-3.007,2.323V6.834a7.131,7.131,0,0,0,2.461-1.366Zm-7.927,0v7.381h1.364V3.417h-.819a6.036,6.036,0,0,1-3.006,2.323V6.834a7.12,7.12,0,0,0,2.459-1.366ZM4444.4,11.48v1.366h1.5V11.48Zm-6.426-3.82h0V7.79c.136.539.273.953.274.956l1.23,4.1h1.368l2.323-6.833h-1.362l-1.231,3.963a.9.9,0,0,1-.085.367.49.49,0,0,0-.051.18,3.758,3.758,0,0,1-.15.374,1.01,1.01,0,0,0-.125.446.854.854,0,0,1-.161-.408c-.027-.114-.06-.253-.112-.411a.889.889,0,0,0-.086-.367.488.488,0,0,1-.051-.18l-1.093-3.963h-1.231l-1.23,3.963-.137.273a9.7,9.7,0,0,1-.275,1.093,6.082,6.082,0,0,1-.408-1.093l-1.231-4.236h-2.455l-1.231,3.963a.893.893,0,0,1-.086.367.5.5,0,0,0-.051.18,3.805,3.805,0,0,1-.147.371,1.017,1.017,0,0,0-.125.448.853.853,0,0,1-.161-.409l0-.009c-.028-.117-.06-.249-.11-.4a.888.888,0,0,0-.086-.367.488.488,0,0,1-.051-.18l-1.231-3.963h-1.23l-1.231,3.963-.138.273a10.2,10.2,0,0,1-.273,1.093,5.989,5.989,0,0,1-.41-1.093L4423.9,6.013H4421.3l-1.231,3.963a.894.894,0,0,1-.086.367.49.49,0,0,0-.051.18,3.722,3.722,0,0,1-.15.374,1.01,1.01,0,0,0-.125.446.848.848,0,0,1-.159-.406c-.028-.119-.06-.254-.114-.414a.891.891,0,0,0-.085-.367.5.5,0,0,1-.05-.18l-1.095-3.963h-1.231l-1.23,3.963-.138.273a9.98,9.98,0,0,1-.273,1.093,5.951,5.951,0,0,1-.41-1.093l-1.231-4.236h-1.367l2.325,6.834h1.368l1.5-5.193V7.79c.137.544.272.953.273.956l1.232,4.1h1.366l2.255-6.632,2.256,6.632h1.367l1.5-5.193V7.79c.135.541.272.953.273.956l1.23,4.1h1.368l2.255-6.632,2.256,6.632h1.368Zm56.329,4.374c-.051,0-.1,0-.153-.006h-.054a2.3,2.3,0,0,1-1.314-.41,2.89,2.89,0,0,1-.82-2.187,2.394,2.394,0,0,1,.819-2.053,2.3,2.3,0,0,1,1.313-.411h.053l.1,0a2.064,2.064,0,0,1,1.4.549,2.7,2.7,0,0,1,.683,1.914,2.926,2.926,0,0,1-.408,1.644A1.856,1.856,0,0,1,4494.3,12.035Z" transform="translate(-3892.958 1065.762)" fill="#fff" opacity="0.4"/>
    <path id="联合_5" data-name="联合 5" d="M3813.445-755.108c3.827-.684,6.424-1.914,8.064-3.692h-4.1v-1.092a28.152,28.152,0,0,1-4.647,2.186l-1.093-2.049a20.434,20.434,0,0,0,6.013-2.87h-5.74v-1.914h7.789a7.437,7.437,0,0,0,.957-1.23h-6.013v-7.653h18.86v7.515h-10.249l-.82,1.231h14.079v1.914h-6.014a26.471,26.471,0,0,0,6.284,2.734h0l-1.23,2.187a25.492,25.492,0,0,1-3.692-1.5,15.2,15.2,0,0,1-.684,4.1,3.338,3.338,0,0,1-1.23,1.5,6.714,6.714,0,0,1-2.734.409h-1.366l-.817-2.186h1.778c1.093,0,1.64-.137,1.914-.41s.409-1.231.546-2.87h-5.057c-1.5,2.734-4.647,4.647-9.567,5.741Zm12.028-6.972a3.987,3.987,0,0,1-.274,1.231h4.372a10.671,10.671,0,0,1-2.187-2.05h-6.15c-.547.546-1.367,1.23-2.324,2.05h3.967l.274-1.367Zm-8.2-5.739h13.938v-1.093h-13.937Zm0-2.736h13.94l0-.134v-.96h-13.937Zm27.466,17.088v-13.806h16.4v5.33H3847.2v1.5h14.9l0,5.878h-14.9v1.094Zm2.327-3.008H3859.5v-1.914h-12.438Zm.138-7.244h11.48v-1.64H3847.2Zm-40.865,10.25h-2.462v-1.5h-7.788v1.5h-2.462v-11.344h12.847v11.344Zm-10.25-3.826h7.788v-5.193h-7.788Zm-11.753,3.69-.821-2.462h1.5c.957,0,1.5,0,1.64-.137a.712.712,0,0,0,.274-.547v-6.695c-.683.274-1.777.683-3.417,1.23l-.547-2.324c1.23-.41,2.6-.957,3.963-1.5v-5.193h-3.692v-2.187h3.692v-4.509h2.462v4.509h3.143v2.323h-3.284v4.237c.683-.274,1.5-.683,2.323-1.094l.409,2.323a17.721,17.721,0,0,1-2.732,1.231v8.473c0,1.5-1.094,2.323-3.144,2.323Zm109.746-.41h-16.131v-2.324h6.97v-2.733h-5.876v-2.186h5.876v-2.462h-5.741v-13.529h13.946v13.53h-5.6v2.462h6.014v2.187h-6.014v2.733h6.7v2.323Zm-6.833-11.89h3.28V-769.6h-3.28Zm-5.6,0h3.28V-769.6h-3.28Zm5.6-5.74h3.28v-3.417h-3.28Zm-5.6,0h3.28v-3.417h-3.28Zm-12.164,13.94c.683-.273,1.777-.82,3.417-1.5v-6.97h-2.733V-768.5h2.733v-5.739h-3.143v-2.186h8.471v2.187h-2.869v5.6h2.462v2.323h-2.462v5.741a28.806,28.806,0,0,0,2.869-1.5l-.135,2.6a67.282,67.282,0,0,1-7.79,4.1Zm-77.082-9.842a9.868,9.868,0,0,0,4.924-7.653h-4.377v-2.322h14.077c0,1.914-.136,3.692-.273,5.467a25.135,25.135,0,0,1-.41,3.417,1.987,1.987,0,0,1-.82,1.23,3.211,3.211,0,0,1-1.367.683,17.686,17.686,0,0,1-3.143.137l-.957-2.462h1.914c.957,0,1.5,0,1.64-.137.274-.137.41-.41.41-1.094.137-.546.137-2.187.274-4.92h-4.51a11.791,11.791,0,0,1-5.467,9.43Zm69.837,1.641v-2.733h-18.314v2.733h-2.462v-4.785h10.114a5.951,5.951,0,0,0-.683-1.231l2.869-.409a17.722,17.722,0,0,1,.958,1.777h9.975l0,4.649Zm-15.989-7.243,2.6-.546a6.235,6.235,0,0,1,1.367,1.914l-2.733.546A11.039,11.039,0,0,0,3846.247-773.149Zm11.48-.274,2.734-.274a7.267,7.267,0,0,1,1.093,2.05l-2.733.409A10.791,10.791,0,0,0,3857.727-773.423Zm-17.083,0a10.574,10.574,0,0,0,4.237-4.783l2.6.683a4.1,4.1,0,0,1-.546,1.094h5.876v2.186h-7.38a21.874,21.874,0,0,1-3.143,2.87Zm20.91,1.777h0Zm-8.747-1.777a18.757,18.757,0,0,0,3.28-4.783l2.6.683a3.8,3.8,0,0,1-.683,1.094h7.38v2.187h-8.61a10.729,10.729,0,0,1-1.64,2.05Zm-34.854-.546v-.82h-6.014V-776.7h6.014v-1.23h2.461v1.23h3.281v1.913h-3.282v.82Zm9.975,0v-.819h-3.143V-776.7h3.143v-1.23h2.462v1.23h6.014v1.912h-6.013v.82Z" transform="translate(-3257.936 1810.413)" fill="#fff"/>
    <path id="联合_3" data-name="联合 3" d="M4002.832-709.469v-35.779l-.276-3.783a5.076,5.076,0,0,0-5.176-3.109c-.552,0-.413-.118-.413-.118v-7.968c0-.41,1.082-.67,1.082-.67a26.454,26.454,0,0,0,11.061-7.616h9.27v59.043Zm-29.8,0v-35.779l-.275-3.783a5.078,5.078,0,0,0-5.177-3.109c-.552,0-.414-.118-.414-.118v-7.968c0-.41,1.082-.67,1.082-.67a26.455,26.455,0,0,0,11.061-7.616h9.27v59.043Zm-29.152,0v-35.779l-.275-3.783a5.077,5.077,0,0,0-5.177-3.109c-.552,0-.414-.118-.414-.118v-7.968c0-.41,1.083-.67,1.083-.67a26.451,26.451,0,0,0,11.06-7.616h9.27v59.043Zm-29.8,0v-35.779l-.275-3.783a5.078,5.078,0,0,0-5.177-3.109c-.552,0-.414-.118-.414-.118v-7.968c0-.41,1.082-.67,1.082-.67a26.454,26.454,0,0,0,11.061-7.616h9.27v59.043Z" transform="translate(-3504.951 1793.604)" fill="#fff"/>
  </g>
</svg>
